<svg width="163" height="49" viewBox="0 0 163 49" fill="none" xmlns="http://www.w3.org/2000/svg">
<path d="M17.8773 14.334V17.3711L17.7982 17.5527L11.2299 32.5234H15.1439V34.416H8.33337L15.9847 16.9746V14.334H17.8773Z" fill="black"/>
<path d="M22.188 15.5955V17.0681H11.3589V15.5955H22.188Z" fill="black"/>
<path d="M19.4491 20.4617C19.4495 20.4625 19.4503 20.4641 19.451 20.4656C19.4526 20.4689 19.4549 20.4747 19.4579 20.4812C19.4639 20.4944 19.4727 20.5143 19.4843 20.5398C19.508 20.592 19.5441 20.6699 19.5897 20.7703C19.6811 20.9713 19.8144 21.2657 19.9823 21.6355C20.3182 22.3753 20.7928 23.4209 21.3466 24.6433C22.4544 27.089 23.8807 30.245 25.1542 33.0818C25.2855 33.3744 25.2598 33.7138 25.0858 33.9832C24.9114 34.2526 24.6118 34.4158 24.2909 34.4158H17.7723V32.5232H22.826C21.7202 30.0651 20.5591 27.4912 19.6229 25.4246C19.5637 25.2939 19.5054 25.1653 19.4481 25.0388V20.4607H19.4491V20.4617Z" fill="black"/>
<path d="M154.635 17.2949C154.581 17.8549 154.541 18.4016 154.515 18.9349C154.501 19.4549 154.495 19.8549 154.495 20.1349C154.495 20.4416 154.501 20.7349 154.515 21.0149C154.528 21.2949 154.541 21.5349 154.555 21.7349H154.095C153.961 20.7349 153.781 19.9483 153.555 19.3749C153.341 18.8016 153.028 18.3883 152.615 18.1349C152.201 17.8816 151.608 17.7549 150.835 17.7549H149.975V29.1549C149.975 29.6883 150.021 30.0883 150.115 30.3549C150.221 30.6216 150.421 30.8016 150.715 30.8949C151.021 30.9749 151.461 31.0283 152.035 31.0549V31.4549C151.661 31.4283 151.181 31.4149 150.595 31.4149C150.008 31.4016 149.408 31.3949 148.795 31.3949C148.155 31.3949 147.548 31.4016 146.975 31.4149C146.415 31.4149 145.961 31.4283 145.615 31.4549V31.0549C146.188 31.0283 146.621 30.9749 146.915 30.8949C147.208 30.8016 147.408 30.6216 147.515 30.3549C147.621 30.0883 147.675 29.6883 147.675 29.1549V17.7549H146.795C146.048 17.7549 145.461 17.8816 145.035 18.1349C144.608 18.3883 144.288 18.8016 144.075 19.3749C143.861 19.9483 143.688 20.7349 143.555 21.7349H143.095C143.121 21.5349 143.135 21.2949 143.135 21.0149C143.148 20.7349 143.155 20.4416 143.155 20.1349C143.155 19.8549 143.141 19.4549 143.115 18.9349C143.101 18.4016 143.068 17.8549 143.015 17.2949C143.588 17.3083 144.215 17.3216 144.895 17.3349C145.575 17.3483 146.261 17.3549 146.955 17.3549C147.648 17.3549 148.275 17.3549 148.835 17.3549C149.395 17.3549 150.015 17.3549 150.695 17.3549C151.375 17.3549 152.061 17.3483 152.755 17.3349C153.448 17.3216 154.075 17.3083 154.635 17.2949Z" fill="black"/>
<path d="M141.896 17.2949V17.6949C141.443 17.7216 141.103 17.8016 140.876 17.9349C140.649 18.0683 140.496 18.2883 140.416 18.5949C140.349 18.8883 140.316 19.3083 140.316 19.8549V31.5349C140.209 31.5349 140.103 31.5349 139.996 31.5349C139.889 31.5349 139.776 31.5349 139.656 31.5349L131.176 19.2149V28.8149C131.176 29.3749 131.216 29.8149 131.296 30.1349C131.376 30.4416 131.549 30.6616 131.816 30.7949C132.083 30.9283 132.489 31.0149 133.036 31.0549V31.4549C132.783 31.4283 132.456 31.4149 132.056 31.4149C131.669 31.4016 131.303 31.3949 130.956 31.3949C130.623 31.3949 130.289 31.4016 129.956 31.4149C129.623 31.4149 129.349 31.4283 129.136 31.4549V31.0549C129.576 31.0149 129.909 30.9349 130.136 30.8149C130.363 30.6816 130.516 30.4616 130.596 30.1549C130.676 29.8483 130.716 29.4283 130.716 28.8949V19.4149C130.716 18.9216 130.676 18.5616 130.596 18.3349C130.516 18.0949 130.363 17.9349 130.136 17.8549C129.909 17.7616 129.576 17.7083 129.136 17.6949V17.2949C129.349 17.3083 129.623 17.3216 129.956 17.3349C130.289 17.3483 130.623 17.3549 130.956 17.3549C131.249 17.3549 131.536 17.3483 131.816 17.3349C132.096 17.3216 132.343 17.3083 132.556 17.2949L139.856 27.7349V19.9349C139.856 19.3616 139.809 18.9216 139.716 18.6149C139.636 18.3083 139.463 18.0883 139.196 17.9549C138.929 17.8083 138.529 17.7216 137.996 17.6949V17.2949C138.236 17.3083 138.556 17.3216 138.956 17.3349C139.356 17.3483 139.729 17.3549 140.076 17.3549C140.409 17.3549 140.743 17.3483 141.076 17.3349C141.409 17.3216 141.683 17.3083 141.896 17.2949Z" fill="black"/>
<path d="M127.092 17.2949C127.039 17.8016 126.999 18.2949 126.972 18.7749C126.959 19.2416 126.952 19.6016 126.952 19.8549C126.952 20.1083 126.959 20.3483 126.972 20.5749C126.985 20.8016 126.999 20.9883 127.012 21.1349H126.552C126.459 20.2816 126.312 19.6083 126.112 19.1149C125.925 18.6216 125.639 18.2749 125.252 18.0749C124.879 17.8616 124.352 17.7549 123.672 17.7549H122.292C121.865 17.7549 121.539 17.7949 121.312 17.8749C121.099 17.9416 120.952 18.0883 120.872 18.3149C120.792 18.5283 120.752 18.8683 120.752 19.3349V29.4149C120.752 29.8683 120.792 30.2083 120.872 30.4349C120.952 30.6616 121.099 30.8149 121.312 30.8949C121.539 30.9616 121.865 30.9949 122.292 30.9949H123.592C124.352 30.9949 124.952 30.8749 125.392 30.6349C125.845 30.3949 126.185 30.0016 126.412 29.4549C126.652 28.9083 126.832 28.1616 126.952 27.2149H127.412C127.372 27.6016 127.352 28.1083 127.352 28.7349C127.352 29.0016 127.359 29.3883 127.372 29.8949C127.399 30.4016 127.439 30.9216 127.492 31.4549C126.812 31.4283 126.045 31.4149 125.192 31.4149C124.339 31.4016 123.579 31.3949 122.912 31.3949C122.605 31.3949 122.212 31.3949 121.732 31.3949C121.252 31.3949 120.732 31.4016 120.172 31.4149C119.625 31.4149 119.065 31.4216 118.492 31.4349C117.932 31.4349 117.392 31.4416 116.872 31.4549V31.0549C117.325 31.0283 117.665 30.9749 117.892 30.8949C118.119 30.8149 118.265 30.6549 118.332 30.4149C118.412 30.1749 118.452 29.8149 118.452 29.3349V19.4149C118.452 18.9216 118.412 18.5616 118.332 18.3349C118.265 18.0949 118.112 17.9349 117.872 17.8549C117.645 17.7616 117.312 17.7083 116.872 17.6949V17.2949C117.392 17.3083 117.932 17.3216 118.492 17.3349C119.065 17.3349 119.625 17.3416 120.172 17.3549C120.732 17.3549 121.252 17.3549 121.732 17.3549C122.212 17.3549 122.605 17.3549 122.912 17.3549C123.525 17.3549 124.219 17.3549 124.992 17.3549C125.779 17.3416 126.479 17.3216 127.092 17.2949ZM123.772 24.1349C123.772 24.1349 123.772 24.2016 123.772 24.3349C123.772 24.4683 123.772 24.5349 123.772 24.5349H120.152C120.152 24.5349 120.152 24.4683 120.152 24.3349C120.152 24.2016 120.152 24.1349 120.152 24.1349H123.772ZM124.352 21.4949C124.299 22.2549 124.272 22.8349 124.272 23.2349C124.285 23.6349 124.292 24.0016 124.292 24.3349C124.292 24.6683 124.299 25.0349 124.312 25.4349C124.325 25.8349 124.359 26.4149 124.412 27.1749H123.952C123.885 26.7349 123.799 26.3149 123.692 25.9149C123.585 25.5016 123.392 25.1683 123.112 24.9149C122.845 24.6616 122.425 24.5349 121.852 24.5349V24.1349C122.279 24.1349 122.612 24.0483 122.852 23.8749C123.105 23.7016 123.299 23.4749 123.432 23.1949C123.565 22.9149 123.659 22.6283 123.712 22.3349C123.779 22.0283 123.839 21.7483 123.892 21.4949H124.352Z" fill="black"/>
<path d="M109.905 17.0149C110.785 17.0149 111.505 17.1482 112.065 17.4149C112.639 17.6682 113.145 17.9682 113.585 18.3149C113.852 18.5149 114.052 18.5416 114.185 18.3949C114.332 18.2349 114.432 17.8682 114.485 17.2949H114.945C114.919 17.8016 114.899 18.4149 114.885 19.1349C114.872 19.8416 114.865 20.7882 114.865 21.9749H114.405C114.312 21.3882 114.219 20.9082 114.125 20.5349C114.045 20.1616 113.932 19.8416 113.785 19.5749C113.652 19.3082 113.465 19.0482 113.225 18.7949C112.839 18.3149 112.365 17.9682 111.805 17.7549C111.245 17.5416 110.652 17.4349 110.025 17.4349C109.345 17.4349 108.745 17.6082 108.225 17.9549C107.705 18.2882 107.265 18.7682 106.905 19.3949C106.559 20.0216 106.292 20.7616 106.105 21.6149C105.919 22.4682 105.825 23.4016 105.825 24.4149C105.825 25.4549 105.925 26.4016 106.125 27.2549C106.325 28.0949 106.612 28.8216 106.985 29.4349C107.372 30.0349 107.832 30.5016 108.365 30.8349C108.912 31.1549 109.519 31.3149 110.185 31.3149C110.732 31.3149 111.299 31.2082 111.885 30.9949C112.472 30.7682 112.939 30.4282 113.285 29.9749C113.659 29.5749 113.912 29.1282 114.045 28.6349C114.192 28.1282 114.312 27.4416 114.405 26.5749H114.865C114.865 27.8016 114.872 28.7949 114.885 29.5549C114.899 30.3016 114.919 30.9349 114.945 31.4549H114.485C114.432 30.8816 114.339 30.5216 114.205 30.3749C114.085 30.2282 113.879 30.2482 113.585 30.4349C113.092 30.7816 112.565 31.0882 112.005 31.3549C111.459 31.6082 110.752 31.7349 109.885 31.7349C108.565 31.7349 107.412 31.4482 106.425 30.8749C105.439 30.3016 104.672 29.4749 104.125 28.3949C103.579 27.3149 103.305 26.0149 103.305 24.4949C103.305 23.0016 103.585 21.6949 104.145 20.5749C104.719 19.4549 105.499 18.5816 106.485 17.9549C107.472 17.3282 108.612 17.0149 109.905 17.0149Z" fill="black"/>
<path d="M96.6117 17.0549C97.3183 17.0549 97.8583 17.1349 98.2317 17.2949C98.605 17.4549 98.9317 17.6283 99.2117 17.8149C99.3717 17.9083 99.4983 17.9816 99.5917 18.0349C99.6983 18.0749 99.7983 18.0949 99.8917 18.0949C100.025 18.0949 100.118 18.0216 100.172 17.8749C100.238 17.7283 100.292 17.5083 100.332 17.2149H100.792C100.778 17.4549 100.758 17.7416 100.732 18.0749C100.718 18.3949 100.705 18.8216 100.692 19.3549C100.692 19.8883 100.692 20.5883 100.692 21.4549H100.232C100.192 20.8016 100.045 20.1683 99.7917 19.5549C99.5517 18.9416 99.1917 18.4416 98.7117 18.0549C98.245 17.6683 97.645 17.4749 96.9117 17.4749C96.2317 17.4749 95.665 17.6816 95.2117 18.0949C94.7717 18.4949 94.5517 19.0283 94.5517 19.6949C94.5517 20.2816 94.6983 20.7749 94.9917 21.1749C95.285 21.5616 95.685 21.9283 96.1917 22.2749C96.7117 22.6083 97.2983 22.9816 97.9517 23.3949C98.6183 23.8216 99.2183 24.2483 99.7517 24.6749C100.285 25.0883 100.705 25.5483 101.012 26.0549C101.318 26.5616 101.472 27.1749 101.472 27.8949C101.472 28.7616 101.265 29.4816 100.852 30.0549C100.452 30.6149 99.9117 31.0349 99.2317 31.3149C98.5517 31.5949 97.805 31.7349 96.9917 31.7349C96.245 31.7349 95.6517 31.6549 95.2117 31.4949C94.7717 31.3349 94.3983 31.1683 94.0917 30.9949C93.7983 30.8083 93.5717 30.7149 93.4117 30.7149C93.2783 30.7149 93.1783 30.7883 93.1117 30.9349C93.0583 31.0816 93.0117 31.3016 92.9717 31.5949H92.5117C92.5383 31.3016 92.5517 30.9616 92.5517 30.5749C92.565 30.1749 92.5717 29.6549 92.5717 29.0149C92.585 28.3749 92.5917 27.5683 92.5917 26.5949H93.0517C93.105 27.4216 93.2517 28.1949 93.4917 28.9149C93.745 29.6349 94.125 30.2149 94.6317 30.6549C95.1517 31.0816 95.8383 31.2949 96.6917 31.2949C97.145 31.2949 97.565 31.2083 97.9517 31.0349C98.3383 30.8616 98.6517 30.5883 98.8917 30.2149C99.1317 29.8416 99.2517 29.3616 99.2517 28.7749C99.2517 28.2283 99.1183 27.7483 98.8517 27.3349C98.5983 26.9216 98.2383 26.5416 97.7717 26.1949C97.3183 25.8349 96.785 25.4683 96.1717 25.0949C95.545 24.6949 94.9583 24.2949 94.4117 23.8949C93.865 23.4949 93.425 23.0283 93.0917 22.4949C92.7717 21.9616 92.6117 21.3283 92.6117 20.5949C92.6117 19.7816 92.7983 19.1149 93.1717 18.5949C93.5583 18.0749 94.0517 17.6883 94.6517 17.4349C95.265 17.1816 95.9183 17.0549 96.6117 17.0549Z" fill="black"/>
<path d="M85.2851 17.2949C85.2318 17.8016 85.1918 18.2949 85.1651 18.7749C85.1518 19.2416 85.1451 19.6016 85.1451 19.8549C85.1451 20.1083 85.1518 20.3483 85.1651 20.5749C85.1785 20.8016 85.1918 20.9883 85.2051 21.1349H84.7451C84.6518 20.2816 84.5051 19.6083 84.3051 19.1149C84.1185 18.6216 83.8318 18.2749 83.4451 18.0749C83.0718 17.8616 82.5451 17.7549 81.8651 17.7549H80.4851C80.0585 17.7549 79.7318 17.7949 79.5051 17.8749C79.2918 17.9416 79.1451 18.0883 79.0651 18.3149C78.9851 18.5283 78.9451 18.8683 78.9451 19.3349V29.4149C78.9451 29.8683 78.9851 30.2083 79.0651 30.4349C79.1451 30.6616 79.2918 30.8149 79.5051 30.8949C79.7318 30.9616 80.0585 30.9949 80.4851 30.9949H81.7851C82.5451 30.9949 83.1451 30.8749 83.5851 30.6349C84.0385 30.3949 84.3785 30.0016 84.6051 29.4549C84.8451 28.9083 85.0251 28.1616 85.1451 27.2149H85.6051C85.5651 27.6016 85.5451 28.1083 85.5451 28.7349C85.5451 29.0016 85.5518 29.3883 85.5651 29.8949C85.5918 30.4016 85.6318 30.9216 85.6851 31.4549C85.0051 31.4283 84.2385 31.4149 83.3851 31.4149C82.5318 31.4016 81.7718 31.3949 81.1051 31.3949C80.7985 31.3949 80.4051 31.3949 79.9251 31.3949C79.4451 31.3949 78.9251 31.4016 78.3651 31.4149C77.8185 31.4149 77.2585 31.4216 76.6851 31.4349C76.1251 31.4349 75.5851 31.4416 75.0651 31.4549V31.0549C75.5185 31.0283 75.8585 30.9749 76.0851 30.8949C76.3118 30.8149 76.4585 30.6549 76.5251 30.4149C76.6051 30.1749 76.6451 29.8149 76.6451 29.3349V19.4149C76.6451 18.9216 76.6051 18.5616 76.5251 18.3349C76.4585 18.0949 76.3051 17.9349 76.0651 17.8549C75.8385 17.7616 75.5051 17.7083 75.0651 17.6949V17.2949C75.5851 17.3083 76.1251 17.3216 76.6851 17.3349C77.2585 17.3349 77.8185 17.3416 78.3651 17.3549C78.9251 17.3549 79.4451 17.3549 79.9251 17.3549C80.4051 17.3549 80.7985 17.3549 81.1051 17.3549C81.7185 17.3549 82.4118 17.3549 83.1851 17.3549C83.9718 17.3416 84.6718 17.3216 85.2851 17.2949ZM81.9651 24.1349C81.9651 24.1349 81.9651 24.2016 81.9651 24.3349C81.9651 24.4683 81.9651 24.5349 81.9651 24.5349H78.3451C78.3451 24.5349 78.3451 24.4683 78.3451 24.3349C78.3451 24.2016 78.3451 24.1349 78.3451 24.1349H81.9651ZM82.5451 21.4949C82.4918 22.2549 82.4651 22.8349 82.4651 23.2349C82.4785 23.6349 82.4851 24.0016 82.4851 24.3349C82.4851 24.6683 82.4918 25.0349 82.5051 25.4349C82.5185 25.8349 82.5518 26.4149 82.6051 27.1749H82.1451C82.0785 26.7349 81.9918 26.3149 81.8851 25.9149C81.7785 25.5016 81.5851 25.1683 81.3051 24.9149C81.0385 24.6616 80.6185 24.5349 80.0451 24.5349V24.1349C80.4718 24.1349 80.8051 24.0483 81.0451 23.8749C81.2985 23.7016 81.4918 23.4749 81.6251 23.1949C81.7585 22.9149 81.8518 22.6283 81.9051 22.3349C81.9718 22.0283 82.0318 21.7483 82.0851 21.4949H82.5451Z" fill="black"/>
<path d="M73.6121 17.2949V17.6949C73.1588 17.7083 72.8188 17.7616 72.5921 17.8549C72.3654 17.9349 72.2121 18.0949 72.1321 18.3349C72.0654 18.5616 72.0321 18.9216 72.0321 19.4149V29.3349C72.0321 29.8149 72.0654 30.1749 72.1321 30.4149C72.2121 30.6549 72.3654 30.8149 72.5921 30.8949C72.8188 30.9749 73.1588 31.0283 73.6121 31.0549V31.4549C73.2788 31.4283 72.8654 31.4149 72.3721 31.4149C71.8788 31.4016 71.3788 31.3949 70.8721 31.3949C70.3121 31.3949 69.7854 31.4016 69.2921 31.4149C68.7988 31.4149 68.4054 31.4283 68.1121 31.4549V31.0549C68.5654 31.0283 68.9054 30.9749 69.1321 30.8949C69.3721 30.8149 69.5321 30.6549 69.6121 30.4149C69.6921 30.1749 69.7321 29.8149 69.7321 29.3349V18.3949L69.8321 18.4349L64.9121 31.5349H64.5921L59.4321 18.5749V28.8149C59.4321 29.3749 59.4721 29.8149 59.5521 30.1349C59.6321 30.4416 59.8054 30.6616 60.0721 30.7949C60.3388 30.9283 60.7454 31.0149 61.2921 31.0549V31.4549C61.0388 31.4283 60.7121 31.4149 60.3121 31.4149C59.9254 31.4016 59.5588 31.3949 59.2121 31.3949C58.8788 31.3949 58.5454 31.4016 58.2121 31.4149C57.8788 31.4149 57.6054 31.4283 57.3921 31.4549V31.0549C57.8321 31.0149 58.1654 30.9349 58.3921 30.8149C58.6188 30.6816 58.7721 30.4616 58.8521 30.1549C58.9321 29.8483 58.9721 29.4283 58.9721 28.8949V19.4149C58.9721 18.9216 58.9321 18.5616 58.8521 18.3349C58.7721 18.0949 58.6188 17.9349 58.3921 17.8549C58.1654 17.7616 57.8321 17.7083 57.3921 17.6949V17.2949C57.6054 17.3083 57.8788 17.3216 58.2121 17.3349C58.5454 17.3483 58.8788 17.3549 59.2121 17.3549C59.5988 17.3549 59.9854 17.3483 60.3721 17.3349C60.7721 17.3216 61.1121 17.3083 61.3921 17.2949L65.8121 28.6549L65.4321 28.9149L69.7721 17.3549C69.9454 17.3549 70.1254 17.3549 70.3121 17.3549C70.4988 17.3549 70.6854 17.3549 70.8721 17.3549C71.3788 17.3549 71.8788 17.3483 72.3721 17.3349C72.8654 17.3216 73.2788 17.3083 73.6121 17.2949Z" fill="black"/>
<path d="M51.0108 17.2148L55.8908 29.7748C56.0774 30.2682 56.2908 30.6015 56.5308 30.7748C56.7841 30.9482 57.0174 31.0415 57.2308 31.0548V31.4548C56.9108 31.4282 56.5308 31.4148 56.0908 31.4148C55.6641 31.4015 55.2308 31.3948 54.7908 31.3948C54.2308 31.3948 53.7108 31.4015 53.2308 31.4148C52.7508 31.4148 52.3641 31.4282 52.0708 31.4548V31.0548C52.7508 31.0282 53.1774 30.9148 53.3508 30.7148C53.5374 30.5015 53.4974 30.0548 53.2308 29.3748L49.6308 19.6548L49.9508 19.2948L46.6308 27.9748C46.3908 28.5748 46.2441 29.0748 46.1908 29.4748C46.1508 29.8748 46.1841 30.1882 46.2908 30.4148C46.4108 30.6415 46.6108 30.8015 46.8908 30.8948C47.1708 30.9882 47.5174 31.0415 47.9308 31.0548V31.4548C47.5308 31.4282 47.1241 31.4148 46.7108 31.4148C46.3108 31.4015 45.9308 31.3948 45.5708 31.3948C45.2508 31.3948 44.9641 31.4015 44.7108 31.4148C44.4708 31.4148 44.2508 31.4282 44.0508 31.4548V31.0548C44.3308 30.9882 44.6108 30.8215 44.8908 30.5548C45.1708 30.2882 45.4374 29.8348 45.6908 29.1948L50.3308 17.2148C50.4374 17.2148 50.5508 17.2148 50.6708 17.2148C50.7908 17.2148 50.9041 17.2148 51.0108 17.2148ZM53.1108 25.6948V26.0948H47.1508L47.3508 25.6948H53.1108Z" fill="black"/>
<path d="M43.4572 17.2949V17.6949L35.8572 30.9949H39.1772C39.7372 30.9949 40.2238 30.9283 40.6372 30.7949C41.0638 30.6483 41.4172 30.4283 41.6972 30.1349C41.9905 29.8283 42.2239 29.4216 42.3972 28.9149C42.5705 28.4083 42.6905 27.7883 42.7572 27.0549H43.2172C43.1772 27.4816 43.1572 28.0416 43.1572 28.7349C43.1572 29.0016 43.1639 29.3883 43.1772 29.8949C43.2039 30.4016 43.2439 30.9216 43.2972 31.4549C42.8039 31.4283 42.2638 31.4149 41.6772 31.4149C41.0905 31.4016 40.5038 31.3949 39.9172 31.3949C39.3438 31.3949 38.8105 31.3949 38.3172 31.3949C37.5038 31.3949 36.6505 31.4016 35.7572 31.4149C34.8638 31.4149 34.0238 31.4283 33.2372 31.4549V31.0549L40.8772 17.7549H37.5572C36.9705 17.7549 36.4705 17.8216 36.0572 17.9549C35.6572 18.0883 35.3172 18.3016 35.0372 18.5949C34.7705 18.8883 34.5572 19.2883 34.3972 19.7949C34.2372 20.2883 34.1172 20.8949 34.0372 21.6149H33.5772C33.6038 21.4149 33.6172 21.1749 33.6172 20.8949C33.6305 20.6149 33.6372 20.3216 33.6372 20.0149C33.6372 19.7483 33.6238 19.3616 33.5972 18.8549C33.5838 18.3483 33.5505 17.8283 33.4972 17.2949C33.9772 17.3083 34.4972 17.3216 35.0572 17.3349C35.6305 17.3483 36.1972 17.3549 36.7572 17.3549C37.3305 17.3549 37.8505 17.3549 38.3172 17.3549C39.1305 17.3549 39.9972 17.3549 40.9172 17.3549C41.8372 17.3416 42.6839 17.3216 43.4572 17.2949Z" fill="black"/>
</svg>
